<svg width="160" height="40" viewBox="0 0 160 40" fill="none" xmlns="http://www.w3.org/2000/svg">
<g clip-path="url(#clip0_9_2)">
<path d="M17.9826 17.9C19.2226 17.9 20.1692 18.1867 20.8226 18.76C21.4759 19.32 21.8026 20.1533 21.8026 21.26V23.7C21.8026 24.8333 21.4826 25.6933 20.8426 26.28C20.2159 26.8533 19.2826 27.1267 18.0426 27.1L11.9226 27V24.82H18.9026C19.1159 24.82 19.2226 24.7133 19.2226 24.5V20.5C19.2226 20.2867 19.1159 20.18 18.9026 20.18H15.3426C14.1026 20.18 13.1626 19.9067 12.5226 19.36C11.8959 18.8133 11.5826 17.9733 11.5826 16.84V14.48C11.5826 13.3733 11.9092 12.52 12.5626 11.92C13.2159 11.3067 14.1626 11.0133 15.4026 11.04L21.2226 11.14V13.32H14.4826C14.2692 13.32 14.1626 13.4333 14.1626 13.66V17.58C14.1626 17.7933 14.2692 17.9 14.4826 17.9H17.9826ZM23.8134 17.62C23.8134 16.5133 24.08 15.7333 24.6134 15.28C25.1467 14.8133 26.02 14.58 27.2334 14.58H29.4134C30.64 14.58 31.52 14.8133 32.0534 15.28C32.5867 15.7333 32.8534 16.5133 32.8534 17.62V24.14C32.8534 25.2467 32.5867 26.0333 32.0534 26.5C31.52 26.9533 30.64 27.18 29.4134 27.18H27.2334C26.02 27.18 25.1467 26.9533 24.6134 26.5C24.08 26.0333 23.8134 25.2467 23.8134 24.14V17.62ZM26.5334 16.6C26.3467 16.6 26.2534 16.6933 26.2534 16.88V24.88C26.2534 25.0667 26.3467 25.16 26.5334 25.16H30.1534C30.3267 25.16 30.4134 25.0667 30.4134 24.88V16.88C30.4134 16.6933 30.3267 16.6 30.1534 16.6H26.5334ZM38.6424 12C38.4691 12 38.3824 12.0867 38.3824 12.26V14.76H41.4224V16.66H38.3824V27H35.9624V16.66H34.5424V14.76H35.9624V12.94C35.9624 11.8333 36.2158 11.06 36.7224 10.62C37.2291 10.1667 38.0491 9.94667 39.1824 9.96H41.8624V12H38.6424ZM48.7624 16.66H45.9024V24.7C45.9024 24.8733 45.9891 24.96 46.1624 24.96H48.7624V27H46.9024C45.7024 27 44.8291 26.7667 44.2824 26.3C43.7491 25.8333 43.4824 25.0533 43.4824 23.96V16.66H42.0424V14.76H43.4824V11.64H45.9024V14.76H48.7624V16.66ZM53.0848 27.18C52.0714 27.18 51.3314 27 50.8648 26.64C50.4114 26.28 50.1848 25.5933 50.1848 24.58V14.76H52.6048V24.94C52.6048 25.1267 52.6914 25.22 52.8648 25.22H56.0648C56.2381 25.22 56.3248 25.1267 56.3248 24.94V14.76H58.7048V24.94C58.7048 25.1267 58.7914 25.22 58.9648 25.22H62.1848C62.3581 25.22 62.4448 25.1267 62.4448 24.94L62.4248 14.76H64.8448L64.8648 24.48C64.8648 25.4933 64.6314 26.2 64.1648 26.6C63.7114 26.9867 62.9781 27.18 61.9648 27.18H60.1248C58.6981 27.18 57.8248 26.6867 57.5048 25.7C57.1848 26.6867 56.3181 27.18 54.9048 27.18H53.0848ZM69.7899 27.18C68.7899 27.18 68.0566 26.9867 67.5899 26.6C67.1366 26.2 66.9099 25.4933 66.9099 24.48V22.68C66.9099 21.6133 67.1499 20.8733 67.6299 20.46C68.1233 20.0333 68.9366 19.82 70.0699 19.82H73.2099V17.04C73.2099 16.8667 73.1233 16.78 72.9499 16.78L67.6499 16.8V14.74H72.4099C73.5566 14.7267 74.3833 14.9467 74.8899 15.4C75.3966 15.84 75.6499 16.6133 75.6499 17.72V27H73.4699L73.2699 25.62C73.1633 26.14 72.9299 26.5333 72.5699 26.8C72.2233 27.0533 71.7233 27.18 71.0699 27.18H69.7899ZM73.2099 25.22V21.58H69.5699C69.3966 21.58 69.3099 21.6667 69.3099 21.84V24.94C69.3099 25.1267 69.3966 25.22 69.5699 25.22H73.2099ZM83.8749 14.58V16.54H80.8549C80.6683 16.54 80.5749 16.6333 80.5749 16.82L80.5949 27H78.1949L78.1549 14.76H80.3149L80.4949 16C80.7616 15.0533 81.5016 14.58 82.7149 14.58H83.8749ZM88.4257 27.14C87.2124 27.14 86.3324 26.9067 85.7857 26.44C85.2524 25.9733 84.9857 25.1867 84.9857 24.08V17.5C84.9857 16.3933 85.219 15.6333 85.6857 15.22C86.1524 14.7933 86.9524 14.58 88.0857 14.58H90.5457C91.6924 14.58 92.5057 14.7933 92.9857 15.22C93.479 15.6333 93.7257 16.3933 93.7257 17.5V22.28H87.4257V24.84C87.4257 25.0133 87.5124 25.1 87.6857 25.1H93.4057V27.14H88.4257ZM87.6857 16.54C87.5124 16.54 87.4257 16.6333 87.4257 16.82V20.52H91.3057V16.82C91.3057 16.6333 91.219 16.54 91.0457 16.54H87.6857ZM99.3651 12C99.1917 12 99.1051 12.0867 99.1051 12.26V14.76H102.145V16.66H99.1051V27H96.6851V16.66H95.2651V14.76H96.6851V12.94C96.6851 11.8333 96.9384 11.06 97.4451 10.62C97.9517 10.1667 98.7717 9.94667 99.9051 9.96H102.585V12H99.3651ZM105.825 27.18C104.825 27.18 104.092 26.9867 103.625 26.6C103.172 26.2 102.945 25.4933 102.945 24.48V22.68C102.945 21.6133 103.185 20.8733 103.665 20.46C104.158 20.0333 104.972 19.82 106.105 19.82H109.245V17.04C109.245 16.8667 109.158 16.78 108.985 16.78L103.685 16.8V14.74H108.445C109.592 14.7267 110.418 14.9467 110.925 15.4C111.432 15.84 111.685 16.6133 111.685 17.72V27H109.505L109.305 25.62C109.198 26.14 108.965 26.5333 108.605 26.8C108.258 27.0533 107.758 27.18 107.105 27.18H105.825ZM109.245 25.22V21.58H105.605C105.432 21.58 105.345 21.6667 105.345 21.84V24.94C105.345 25.1267 105.432 25.22 105.605 25.22H109.245ZM114.27 27V10.16H116.69V15.92C116.957 15.0267 117.67 14.58 118.83 14.58H120.23C121.243 14.58 121.983 14.78 122.45 15.18C122.917 15.58 123.15 16.2867 123.15 17.3V24.26C123.15 25.34 122.903 26.0933 122.41 26.52C121.93 26.9333 121.117 27.1333 119.97 27.12L114.27 27ZM116.69 16.82V25.06L120.47 25.1C120.643 25.1 120.73 25.0067 120.73 24.82V16.82C120.73 16.6333 120.643 16.54 120.47 16.54H116.97C116.783 16.54 116.69 16.6333 116.69 16.82ZM131.336 14.58V16.54H128.316C128.129 16.54 128.036 16.6333 128.036 16.82L128.056 27H125.656L125.616 14.76H127.776L127.956 16C128.223 15.0533 128.963 14.58 130.176 14.58H131.336ZM132.887 12.58V10.34H135.327V12.58H132.887ZM132.887 27V14.76H135.327V27H132.887ZM138.412 27V10.16H140.812V19.6H143.252C143.345 19.6 143.405 19.58 143.432 19.54C143.472 19.5 143.505 19.4333 143.532 19.34L144.952 14.76H147.312L146.172 18.52C146.012 19.0533 145.859 19.48 145.712 19.8C145.565 20.1067 145.379 20.3467 145.152 20.52C145.552 20.64 145.859 20.8733 146.072 21.22C146.285 21.5533 146.505 22.0533 146.732 22.72L148.252 27H145.792L143.992 21.9C143.965 21.7933 143.932 21.72 143.892 21.68C143.865 21.64 143.805 21.62 143.712 21.62H140.812V27H138.412Z" fill="white"/>
</g>
<defs>
<clipPath id="clip0_9_2">
<rect width="160" height="40" fill="white"/>
</clipPath>
</defs>
</svg>
